<?xml version="1.0" standalone="no"?>
<!DOCTYPE svg PUBLIC "-//W3C//DTD SVG 20010904//EN"
 "http://www.w3.org/TR/2001/REC-SVG-20010904/DTD/svg10.dtd">
<svg version="1.0" xmlns="http://www.w3.org/2000/svg"
 width="3000.000000pt" height="3000.000000pt" viewBox="0 0 3000.000000 3000.000000"
 preserveAspectRatio="xMidYMid meet">
<metadata>
Created by potrace 1.14, written by Peter Selinger 2001-2017
</metadata>
<g transform="translate(0.000000,3000.000000) scale(0.100000,-0.100000)"
fill="#000000" stroke="none">
<path d="M10265 24015 c-302 -20 -638 -53 -755 -74 -30 -6 -71 -13 -90 -16
-38 -5 -179 -28 -273 -44 -56 -9 -125 -24 -197 -41 -19 -5 -59 -12 -88 -16
-29 -4 -55 -11 -58 -15 -3 -5 -15 -9 -27 -9 -12 0 -85 -16 -162 -36 -77 -20
-158 -40 -180 -45 -22 -5 -51 -13 -65 -18 -14 -5 -54 -17 -90 -27 -36 -9 -69
-21 -74 -26 -6 -4 -19 -8 -30 -8 -21 0 -140 -36 -168 -51 -10 -5 -27 -9 -37
-9 -11 0 -22 -4 -25 -9 -3 -5 -22 -12 -42 -16 -20 -3 -44 -10 -53 -15 -9 -4
-56 -22 -106 -40 -49 -18 -98 -36 -107 -41 -10 -5 -23 -9 -29 -9 -6 0 -25 -6
-42 -14 -18 -8 -68 -28 -112 -45 -95 -38 -137 -55 -227 -95 -20 -9 -41 -16
-47 -16 -6 0 -11 -4 -11 -10 0 -5 -7 -10 -15 -10 -24 0 -456 -209 -625 -302
-107 -59 -268 -149 -309 -175 -20 -12 -54 -31 -76 -43 -22 -12 -69 -41 -105
-65 -256 -167 -396 -259 -400 -264 -3 -3 -27 -22 -55 -41 -27 -19 -51 -38 -53
-42 -2 -4 -8 -8 -14 -8 -9 0 -76 -48 -106 -77 -7 -7 -17 -13 -20 -13 -4 0 -18
-10 -32 -22 -14 -13 -52 -43 -85 -67 -33 -25 -62 -47 -65 -50 -3 -4 -39 -33
-80 -66 -41 -32 -86 -69 -100 -81 -56 -49 -106 -92 -129 -110 -130 -103 -530
-492 -715 -694 -33 -36 -78 -85 -101 -110 -54 -60 -161 -184 -205 -239 -19
-24 -42 -51 -50 -60 -8 -9 -31 -37 -50 -61 -19 -25 -38 -49 -43 -55 -60 -77
-145 -187 -157 -205 -8 -12 -20 -28 -26 -34 -5 -6 -32 -42 -59 -81 -26 -38
-51 -72 -54 -75 -3 -3 -10 -12 -16 -21 -5 -10 -56 -86 -113 -169 -56 -84 -102
-157 -102 -161 0 -5 -3 -9 -8 -9 -4 0 -16 -17 -27 -37 -11 -21 -32 -56 -47
-77 -16 -21 -28 -45 -28 -53 0 -7 -4 -13 -9 -13 -5 0 -11 -8 -15 -17 -3 -10
-10 -25 -15 -33 -32 -47 -91 -152 -91 -160 0 -6 -4 -10 -8 -10 -4 0 -13 -12
-19 -27 -7 -16 -37 -73 -68 -128 -46 -85 -225 -442 -270 -540 -27 -59 -90
-203 -135 -310 -4 -11 -22 -56 -40 -100 -17 -44 -35 -89 -40 -100 -5 -11 -16
-42 -25 -70 -10 -27 -24 -64 -31 -82 -8 -17 -14 -37 -14 -45 0 -8 -4 -18 -8
-23 -4 -6 -23 -57 -41 -115 -19 -58 -37 -112 -41 -120 -4 -9 -11 -31 -15 -50
-4 -19 -11 -41 -15 -50 -5 -8 -15 -40 -24 -70 -9 -30 -23 -77 -31 -103 -8 -26
-15 -56 -15 -67 0 -10 -4 -21 -9 -24 -5 -3 -11 -20 -14 -38 -9 -53 -32 -142
-38 -153 -4 -5 -10 -30 -13 -55 -4 -25 -11 -54 -15 -65 -5 -11 -16 -56 -26
-100 -9 -44 -21 -96 -26 -115 -5 -19 -13 -60 -19 -90 -5 -30 -16 -93 -25 -140
-43 -220 -83 -491 -104 -705 -5 -49 -12 -103 -15 -120 -26 -128 -47 -1146 -27
-1325 6 -52 15 -171 22 -265 6 -93 15 -201 19 -240 26 -217 54 -422 79 -560 5
-27 14 -84 21 -125 7 -41 16 -84 21 -95 4 -11 10 -42 14 -70 3 -27 10 -63 15
-80 5 -16 14 -55 20 -85 14 -61 21 -94 45 -190 9 -36 20 -81 24 -100 5 -19 16
-62 26 -95 9 -33 21 -78 27 -100 5 -22 13 -47 17 -55 5 -9 12 -35 16 -58 4
-23 11 -44 16 -48 5 -3 9 -18 9 -34 0 -16 4 -31 9 -34 5 -4 12 -24 16 -46 4
-22 10 -42 15 -45 4 -3 11 -22 15 -42 4 -21 10 -42 14 -48 4 -5 16 -39 26 -75
11 -36 25 -76 32 -90 7 -14 13 -31 13 -38 0 -7 4 -20 9 -30 5 -9 17 -37 26
-62 9 -25 21 -52 25 -60 4 -9 11 -30 14 -48 4 -17 12 -34 17 -37 5 -4 9 -12 9
-20 0 -12 48 -127 70 -167 6 -10 10 -22 10 -27 0 -13 61 -148 160 -356 29 -60
62 -130 74 -155 11 -25 23 -47 26 -50 3 -3 22 -39 43 -80 20 -41 53 -104 73
-140 20 -36 53 -97 74 -135 42 -79 230 -387 240 -395 4 -3 10 -15 14 -27 4
-13 12 -23 17 -23 5 0 9 -5 9 -10 0 -12 141 -223 153 -228 4 -2 7 -8 7 -13 0
-8 205 -293 234 -326 6 -7 27 -33 46 -59 56 -74 223 -281 265 -328 6 -6 39
-45 75 -86 91 -105 124 -141 215 -237 150 -159 319 -326 515 -507 44 -41 186
-165 224 -197 16 -13 34 -29 40 -35 6 -6 83 -68 171 -138 88 -69 167 -132 175
-139 8 -6 75 -56 150 -109 74 -53 140 -101 146 -105 5 -4 17 -12 26 -18 43
-27 204 -136 213 -143 14 -11 366 -227 385 -235 8 -4 29 -15 45 -25 151 -92
635 -339 810 -412 11 -5 45 -20 75 -33 30 -13 80 -34 110 -47 30 -12 71 -29
90 -37 53 -22 71 -29 120 -48 25 -10 59 -24 77 -31 17 -8 37 -14 45 -14 8 0
18 -4 24 -8 5 -5 36 -17 69 -27 33 -11 65 -22 70 -26 6 -4 26 -10 45 -14 19
-4 40 -10 45 -14 6 -4 37 -15 70 -25 33 -10 69 -22 80 -26 11 -5 54 -18 95
-30 41 -12 109 -33 150 -46 41 -13 83 -24 92 -24 10 0 26 -4 36 -10 9 -5 37
-13 62 -19 52 -11 201 -48 245 -61 17 -4 50 -11 75 -15 25 -3 54 -10 65 -14
11 -5 63 -16 115 -25 52 -10 113 -21 135 -26 102 -22 315 -18 465 10 63 11
140 32 155 42 6 3 27 9 48 13 20 4 37 11 37 16 0 5 7 9 15 9 26 0 212 101 280
152 48 36 158 132 195 169 96 98 211 255 266 367 16 31 31 59 34 62 3 3 14 25
24 50 10 25 22 54 27 65 32 73 75 232 90 335 6 36 15 94 20 130 17 105 -1 425
-30 530 -5 19 -17 64 -26 100 -10 36 -21 74 -25 85 -5 11 -12 31 -16 45 -10
38 -97 226 -124 270 -5 8 -28 47 -51 85 -23 39 -44 72 -48 75 -4 3 -15 19 -25
35 -40 64 -136 175 -246 285 -127 126 -130 129 -325 277 -36 28 -104 73 -109
73 -3 0 -25 14 -48 30 -22 16 -47 30 -54 30 -7 0 -14 3 -16 8 -6 13 -217 120
-333 167 -22 9 -49 20 -60 25 -11 5 -42 16 -70 25 -27 9 -57 20 -65 25 -9 4
-31 11 -50 15 -19 4 -39 10 -45 14 -5 4 -37 16 -70 26 -33 11 -64 23 -69 27
-6 4 -16 8 -24 8 -8 0 -28 6 -45 14 -18 8 -68 29 -112 46 -87 35 -110 45 -197
84 -31 14 -61 26 -67 26 -5 0 -11 3 -13 8 -4 9 -130 72 -145 72 -6 0 -13 3
-15 8 -1 4 -34 23 -73 42 -38 19 -72 37 -75 40 -3 3 -23 14 -45 25 -22 11 -54
30 -71 42 -17 13 -35 23 -40 23 -6 0 -19 7 -29 15 -11 8 -42 29 -70 47 -151
95 -387 258 -405 278 -3 3 -34 28 -70 55 -36 27 -71 55 -78 62 -8 7 -30 26
-50 41 -21 15 -39 29 -42 32 -3 3 -50 46 -105 95 -229 206 -471 463 -643 685
-41 52 -81 104 -91 115 -9 11 -32 43 -51 70 -19 28 -37 52 -40 55 -11 10 -198
296 -216 330 -10 19 -22 36 -26 38 -5 2 -8 10 -8 17 0 8 -6 20 -12 27 -12 13
-26 36 -67 113 -9 16 -18 32 -21 35 -10 10 -150 298 -150 309 0 6 -4 11 -9 11
-5 0 -12 11 -15 25 -4 14 -18 51 -32 83 -32 69 -55 124 -89 212 -10 25 -24 59
-31 77 -8 17 -14 38 -14 46 0 9 -4 19 -10 22 -6 3 -10 16 -10 28 0 12 -6 33
-13 47 -7 14 -21 54 -32 90 -10 36 -22 70 -26 75 -4 6 -10 30 -14 55 -4 24
-11 51 -16 60 -17 30 -77 288 -120 515 -104 542 -114 1278 -25 1845 32 200 78
426 111 545 26 93 33 116 45 165 7 25 15 54 19 65 4 11 22 65 40 120 18 55 36
109 41 120 31 77 70 189 70 201 0 8 5 14 10 14 6 0 10 7 10 16 0 8 12 41 26
72 14 31 33 73 41 92 9 19 35 76 59 126 24 50 44 96 44 102 0 6 3 12 8 14 4 2
25 39 48 83 70 137 282 497 304 515 3 3 28 39 55 80 28 41 53 77 56 80 3 3 32
41 64 85 32 44 61 82 65 85 3 3 21 25 40 50 19 25 37 47 40 50 6 6 91 106 124
147 30 37 410 419 471 473 46 42 157 135 180 152 6 4 28 23 51 40 22 18 58 47
79 63 21 17 50 40 66 53 15 12 30 22 33 22 4 0 12 5 19 10 17 15 81 63 103 78
109 73 360 232 369 232 3 0 24 12 46 26 43 27 169 94 279 150 62 31 113 54
225 103 28 12 59 26 70 31 69 31 172 70 182 70 7 0 13 5 13 10 0 6 10 10 23
10 12 0 35 7 51 15 15 8 34 15 42 15 7 0 30 7 51 16 65 28 77 33 113 40 19 3
41 10 50 14 8 5 44 16 80 25 36 10 74 21 85 26 11 4 43 13 70 19 28 6 79 18
115 26 89 22 143 33 225 48 39 7 77 15 85 18 8 3 56 11 105 18 50 6 119 15
155 20 36 5 128 14 205 20 77 6 183 15 235 20 123 13 398 13 520 0 52 -5 156
-14 230 -20 211 -17 478 -56 670 -99 25 -6 72 -16 105 -23 33 -7 65 -16 70
-19 6 -4 30 -10 55 -13 25 -4 54 -11 65 -15 11 -5 49 -16 85 -26 36 -9 72 -20
80 -25 9 -4 31 -11 50 -15 19 -4 41 -11 50 -16 8 -4 58 -22 110 -39 52 -17
104 -36 115 -40 11 -5 56 -23 100 -41 169 -66 229 -93 415 -188 225 -114 224
-114 230 -120 4 -5 36 -23 121 -66 10 -5 19 -13 19 -17 0 -5 6 -8 14 -8 8 0
21 -6 28 -13 7 -6 30 -21 51 -32 20 -11 37 -23 37 -27 0 -5 5 -8 10 -8 11 0
193 -122 226 -151 11 -11 25 -19 31 -19 6 0 13 -4 15 -8 2 -5 30 -28 63 -52
52 -38 248 -194 282 -225 6 -5 49 -43 95 -84 103 -93 319 -309 418 -419 41
-46 80 -89 85 -95 81 -89 309 -393 400 -532 33 -49 63 -91 67 -93 4 -2 8 -10
8 -17 0 -8 6 -20 13 -27 6 -7 21 -29 31 -48 11 -19 22 -37 25 -40 3 -3 14 -21
24 -40 31 -59 52 -95 57 -100 17 -17 177 -342 244 -495 7 -16 18 -41 24 -55 6
-14 25 -61 43 -105 17 -44 37 -94 45 -112 8 -17 14 -36 14 -42 0 -6 4 -19 9
-29 6 -9 24 -60 41 -112 17 -52 35 -102 39 -110 5 -9 12 -31 16 -50 4 -19 11
-41 15 -50 7 -13 26 -58 49 -115 5 -11 23 -50 40 -87 17 -37 31 -72 31 -77 0
-5 3 -11 8 -13 4 -2 16 -21 26 -43 20 -41 155 -266 165 -275 3 -3 22 -27 41
-55 128 -185 371 -432 535 -546 28 -18 52 -36 55 -39 7 -7 43 -29 60 -37 8 -4
17 -9 20 -12 16 -19 283 -151 304 -151 8 0 17 -4 20 -9 3 -5 23 -12 43 -16 21
-4 43 -10 48 -14 6 -4 44 -15 85 -25 41 -9 93 -23 115 -29 54 -16 554 -17 610
0 22 6 76 19 120 29 44 10 85 21 90 25 6 3 26 10 45 14 19 4 41 11 50 16 8 4
49 22 90 41 252 110 510 317 639 513 14 22 29 42 34 43 4 2 7 9 7 15 0 6 6 18
14 26 21 25 91 161 110 216 10 28 22 59 27 70 33 76 68 298 68 430 0 141 -38
371 -104 635 -32 126 -46 186 -56 230 -5 25 -13 56 -18 70 -5 14 -17 52 -26
85 -9 33 -20 71 -25 85 -5 14 -16 52 -25 85 -17 58 -39 129 -55 170 -4 11 -22
65 -39 120 -18 55 -39 114 -47 132 -8 17 -14 38 -14 46 0 9 -4 19 -10 22 -5 3
-10 13 -10 22 0 8 -6 29 -14 46 -7 18 -19 48 -26 67 -7 19 -19 49 -25 65 -57
140 -80 191 -87 200 -4 5 -8 15 -8 21 0 12 -27 76 -84 199 -50 107 -250 510
-255 515 -3 3 -18 28 -32 55 -44 85 -101 190 -109 200 -4 6 -17 26 -27 45 -35
61 -169 281 -186 304 -4 6 -40 61 -79 121 -39 61 -74 112 -77 115 -3 3 -28 39
-56 80 -27 41 -52 77 -55 80 -3 3 -21 28 -40 55 -42 60 -42 61 -77 105 -16 19
-49 62 -73 95 -25 33 -47 62 -50 65 -3 3 -28 34 -55 70 -27 36 -52 67 -55 70
-3 3 -28 32 -55 65 -28 33 -54 65 -60 71 -5 6 -37 42 -70 80 -241 276 -528
567 -784 794 -105 94 -116 103 -142 125 -13 11 -40 33 -60 50 -19 16 -54 45
-77 63 -22 19 -51 43 -64 54 -13 11 -39 32 -58 47 -19 14 -37 28 -40 32 -3 3
-52 41 -110 84 -58 43 -106 83 -108 87 -2 4 -8 8 -13 8 -6 0 -15 5 -22 10 -33
29 -249 180 -257 180 -4 0 -10 3 -12 8 -2 4 -28 23 -58 42 -30 19 -57 37 -60
41 -10 11 -370 229 -380 229 -5 0 -10 4 -10 9 0 5 -10 13 -22 17 -13 4 -45 21
-73 39 -27 17 -63 38 -80 46 -16 9 -84 44 -150 79 -202 107 -435 220 -575 278
-34 15 -125 55 -182 81 -26 11 -51 21 -56 21 -4 0 -27 9 -50 20 -23 11 -56 23
-72 27 -17 3 -30 9 -30 14 0 5 -6 9 -14 9 -14 0 -154 50 -213 76 -17 8 -40 14
-50 14 -10 0 -23 4 -29 8 -5 4 -56 23 -114 41 -58 19 -112 37 -120 41 -9 4
-31 11 -50 14 -19 4 -44 11 -55 15 -37 16 -127 41 -146 41 -10 0 -20 4 -23 9
-3 5 -27 12 -52 16 -26 4 -54 10 -63 15 -9 5 -47 16 -86 25 -38 9 -86 20 -105
26 -19 5 -57 14 -85 20 -27 5 -81 17 -120 25 -38 8 -90 19 -115 24 -25 4 -52
11 -60 14 -8 4 -44 11 -80 16 -58 9 -152 24 -305 49 -27 5 -95 14 -150 20 -55
7 -122 17 -150 22 -48 9 -183 21 -445 39 -234 17 -881 19 -1105 5z"/>
<path d="M20514 23880 c-51 -4 -107 -13 -125 -18 -19 -6 -61 -18 -94 -27 -74
-20 -77 -21 -200 -80 -55 -26 -114 -58 -132 -71 -17 -13 -36 -24 -41 -24 -6 0
-12 -3 -14 -7 -1 -5 -23 -21 -47 -38 -100 -67 -351 -334 -351 -373 0 -6 -4
-12 -9 -14 -24 -9 -181 -327 -181 -367 0 -9 -4 -21 -9 -26 -4 -6 -13 -28 -19
-50 -5 -22 -18 -67 -27 -100 -28 -101 -39 -212 -38 -400 0 -194 11 -291 44
-412 12 -43 24 -90 27 -106 2 -15 8 -30 13 -33 5 -3 9 -12 9 -21 0 -8 7 -30
15 -49 8 -19 22 -49 30 -68 8 -19 15 -39 15 -45 0 -6 5 -11 10 -11 6 0 10 -6
10 -12 0 -20 57 -125 118 -218 63 -94 60 -91 99 -140 16 -19 40 -51 55 -70 51
-68 249 -261 338 -330 25 -19 50 -39 57 -45 7 -5 19 -16 27 -22 8 -7 19 -13
25 -13 5 0 11 -4 13 -9 3 -10 114 -85 168 -115 19 -10 37 -21 40 -25 5 -6 32
-21 175 -95 76 -39 166 -78 275 -121 25 -9 52 -21 60 -25 9 -4 31 -11 50 -15
19 -4 40 -10 45 -14 6 -4 39 -16 75 -26 36 -11 76 -25 90 -32 14 -7 32 -13 41
-13 8 0 19 -4 25 -8 5 -5 43 -21 84 -37 112 -42 148 -57 323 -140 65 -30 122
-55 127 -55 4 0 10 -3 12 -7 2 -5 28 -20 58 -35 30 -15 87 -46 125 -68 39 -21
77 -43 85 -46 33 -16 338 -209 365 -231 6 -5 33 -24 60 -43 28 -19 52 -38 55
-41 3 -3 41 -32 85 -64 93 -68 268 -210 340 -275 144 -130 494 -492 559 -578
12 -15 29 -36 38 -47 10 -11 54 -67 99 -125 44 -58 88 -114 97 -126 10 -11 22
-28 27 -37 6 -8 37 -55 70 -104 33 -48 62 -92 64 -98 2 -5 7 -12 10 -15 27
-20 214 -351 310 -545 81 -165 131 -272 131 -280 0 -3 9 -27 21 -53 33 -76 45
-105 59 -142 7 -19 19 -49 26 -67 8 -17 14 -36 14 -42 0 -6 4 -19 9 -29 11
-20 52 -142 76 -227 9 -33 22 -73 27 -90 6 -16 14 -46 19 -65 4 -19 15 -62 24
-95 65 -238 103 -456 145 -820 39 -336 28 -1076 -20 -1305 -5 -25 -12 -76 -16
-115 -3 -38 -9 -79 -14 -90 -4 -11 -13 -51 -20 -90 -6 -38 -15 -88 -20 -110
-4 -22 -13 -67 -20 -100 -6 -33 -15 -67 -19 -75 -5 -9 -12 -36 -15 -60 -4 -25
-11 -54 -15 -65 -16 -37 -41 -127 -41 -146 0 -10 -4 -20 -9 -23 -5 -4 -12 -25
-16 -49 -4 -23 -10 -46 -14 -52 -4 -5 -15 -35 -25 -65 -10 -30 -21 -64 -26
-75 -4 -11 -27 -72 -50 -135 -23 -63 -55 -143 -71 -178 -16 -35 -29 -66 -29
-70 0 -13 -224 -457 -232 -460 -4 -2 -8 -8 -8 -13 0 -7 -46 -88 -90 -159 -5
-8 -19 -34 -31 -57 -13 -24 -26 -43 -31 -43 -4 0 -8 -4 -8 -9 0 -8 -125 -200
-148 -226 -4 -6 -29 -39 -55 -75 -67 -94 -190 -251 -227 -291 -8 -9 -24 -27
-35 -40 -126 -155 -428 -458 -599 -600 -16 -13 -34 -28 -40 -34 -39 -35 -130
-108 -181 -146 -33 -24 -66 -50 -74 -57 -8 -7 -26 -21 -40 -30 -14 -9 -33 -22
-41 -29 -35 -28 -152 -107 -245 -164 -55 -35 -101 -66 -103 -71 -2 -4 -8 -8
-14 -8 -6 0 -38 -17 -71 -37 -77 -48 -148 -87 -209 -115 -27 -12 -48 -25 -48
-30 0 -4 -4 -8 -9 -8 -6 0 -63 -25 -128 -56 -65 -31 -131 -62 -148 -69 -16 -7
-55 -25 -85 -39 -30 -14 -59 -26 -64 -26 -8 0 -67 -24 -98 -41 -10 -5 -23 -9
-29 -9 -6 0 -25 -6 -42 -14 -18 -8 -57 -22 -87 -32 -30 -10 -59 -21 -65 -25
-5 -4 -26 -10 -45 -14 -19 -4 -39 -11 -45 -15 -5 -4 -29 -11 -52 -15 -24 -4
-45 -11 -49 -16 -3 -5 -18 -9 -33 -9 -15 0 -31 -4 -37 -9 -5 -5 -31 -14 -59
-20 -27 -7 -77 -19 -110 -27 -33 -8 -78 -19 -100 -23 -22 -5 -74 -17 -115 -26
-124 -27 -368 -65 -555 -86 -311 -35 -775 -36 -1090 -4 -115 12 -303 36 -345
45 -25 5 -70 12 -100 16 -30 3 -64 9 -75 14 -11 4 -49 13 -85 20 -105 19 -238
50 -270 62 -8 4 -35 11 -60 18 -25 6 -58 15 -75 20 -16 5 -50 14 -75 20 -25 6
-52 15 -60 19 -9 5 -31 12 -50 16 -19 4 -39 10 -45 14 -5 4 -35 15 -65 25 -30
10 -64 22 -75 27 -11 4 -56 22 -100 39 -44 17 -94 37 -112 45 -17 8 -38 15
-47 15 -9 0 -16 5 -16 10 0 6 -5 10 -10 10 -18 0 -128 51 -300 139 -91 46
-180 91 -197 99 -18 9 -33 20 -33 24 0 4 -4 8 -10 8 -5 0 -50 25 -100 55 -50
30 -95 55 -100 55 -4 0 -10 3 -12 8 -1 4 -46 35 -98 69 -52 34 -99 66 -105 70
-5 5 -32 24 -60 43 -27 19 -51 38 -53 43 -2 4 -10 7 -17 7 -7 0 -15 4 -17 8
-2 4 -32 30 -68 57 -36 27 -76 59 -90 71 -14 12 -56 47 -94 78 -204 167 -522
485 -678 679 -18 23 -47 57 -63 77 -17 19 -51 62 -75 95 -25 33 -53 69 -63 80
-10 11 -28 36 -40 55 -11 19 -24 37 -27 40 -3 3 -28 39 -55 80 -28 41 -52 77
-55 80 -3 3 -10 14 -17 25 -7 11 -46 74 -87 140 -80 129 -94 154 -164 285 -71
133 -172 340 -172 353 0 6 -56 133 -70 159 -6 10 -10 23 -10 29 0 6 -7 26 -15
45 -8 19 -22 49 -30 68 -8 19 -15 39 -15 45 0 6 -4 19 -10 29 -5 9 -30 80 -55
157 -26 77 -50 149 -55 160 -66 161 -91 216 -136 305 -68 132 -97 184 -106
188 -5 2 -8 8 -8 13 0 13 -112 175 -186 269 -97 121 -378 400 -404 400 -5 0
-10 4 -12 9 -4 10 -136 101 -148 101 -4 0 -10 4 -12 9 -7 19 -230 133 -323
166 -27 9 -59 21 -70 26 -19 8 -34 12 -155 45 -107 29 -198 38 -395 37 -190 0
-307 -10 -385 -32 -19 -5 -62 -17 -95 -26 -33 -9 -68 -20 -77 -26 -10 -5 -23
-9 -28 -9 -21 0 -285 -126 -313 -150 -6 -5 -48 -35 -92 -66 -169 -120 -303
-265 -422 -459 -36 -60 -92 -189 -119 -275 -9 -30 -21 -64 -25 -75 -35 -86
-45 -434 -17 -590 16 -89 40 -203 58 -280 5 -22 15 -67 22 -100 7 -33 16 -64
19 -70 4 -5 10 -34 14 -62 4 -29 11 -55 16 -59 5 -3 9 -15 9 -26 0 -24 27
-124 41 -150 5 -10 9 -24 9 -33 0 -8 7 -36 15 -62 8 -26 22 -73 31 -103 9 -30
19 -62 24 -70 4 -9 11 -31 15 -50 4 -19 11 -41 15 -50 4 -8 16 -42 26 -75 10
-33 21 -64 25 -70 4 -5 10 -26 14 -45 4 -19 11 -41 15 -50 5 -8 23 -55 41
-105 18 -49 36 -94 41 -100 4 -5 8 -16 8 -25 0 -8 7 -28 15 -44 8 -15 15 -32
15 -36 0 -5 14 -39 31 -77 16 -37 35 -79 41 -93 5 -14 16 -38 23 -55 7 -16 21
-48 30 -70 84 -196 316 -656 392 -777 12 -21 23 -40 23 -43 0 -4 69 -122 91
-155 5 -8 12 -23 15 -32 4 -10 10 -18 15 -18 5 0 9 -6 9 -14 0 -8 6 -21 13
-28 18 -20 37 -50 43 -70 4 -10 10 -18 15 -18 5 0 9 -4 9 -9 0 -5 19 -38 41
-73 58 -87 133 -201 141 -213 4 -5 65 -90 135 -187 71 -97 137 -187 148 -200
11 -13 40 -50 64 -83 25 -33 47 -62 50 -65 3 -3 24 -27 46 -55 22 -27 44 -55
50 -61 5 -6 28 -33 50 -60 22 -26 60 -71 85 -99 24 -27 51 -58 60 -69 76 -92
518 -541 671 -681 102 -93 222 -198 314 -274 52 -42 141 -117 145 -121 3 -3
50 -39 105 -80 55 -41 109 -82 120 -93 11 -10 36 -28 55 -40 19 -11 37 -24 40
-27 3 -3 28 -22 55 -41 28 -18 52 -36 55 -39 3 -3 39 -27 80 -55 41 -27 76
-53 78 -57 2 -5 7 -8 12 -8 5 0 55 -31 111 -70 57 -38 109 -70 115 -70 7 0 14
-3 16 -8 5 -11 103 -72 116 -72 7 0 12 -4 12 -10 0 -5 11 -12 25 -16 14 -3 25
-10 25 -14 0 -4 8 -10 18 -14 9 -3 26 -11 37 -18 42 -28 101 -61 178 -103 45
-23 107 -57 137 -74 59 -33 282 -144 420 -209 80 -37 139 -64 220 -98 19 -9
46 -20 60 -26 14 -6 39 -16 55 -23 17 -7 41 -18 55 -23 14 -6 61 -25 105 -42
44 -17 88 -36 97 -41 10 -5 23 -9 29 -9 6 0 25 -6 42 -14 18 -8 55 -22 82 -31
28 -9 57 -20 65 -25 9 -4 31 -11 50 -15 19 -4 41 -11 50 -16 19 -10 142 -50
240 -79 98 -29 125 -37 183 -55 26 -8 54 -15 62 -15 9 0 23 -4 33 -10 9 -5 37
-13 62 -19 25 -5 72 -17 105 -26 61 -17 98 -25 215 -50 36 -7 97 -21 135 -30
39 -9 93 -20 120 -25 93 -16 220 -39 245 -44 14 -3 75 -12 135 -21 61 -8 137
-20 170 -26 61 -10 119 -16 480 -46 282 -24 1074 -25 1365 -1 305 26 408 36
480 47 36 6 110 17 165 25 210 31 386 63 530 96 28 6 75 16 105 21 30 5 63 14
72 19 10 6 28 10 40 10 13 0 57 10 98 21 41 12 98 27 127 33 28 6 55 15 59 19
4 4 15 7 25 7 10 0 38 6 61 14 24 7 70 21 103 30 33 10 69 21 80 26 11 5 36
12 55 16 19 3 41 10 50 14 8 5 42 16 75 26 33 10 65 21 70 25 6 4 27 10 48 14
20 4 40 11 43 16 3 5 14 9 24 9 11 0 34 6 52 14 18 8 49 21 70 30 20 9 43 16
52 16 9 0 16 5 16 10 0 6 9 10 20 10 10 0 34 6 52 14 30 13 72 31 138 58 14 5
38 16 53 24 16 8 32 14 37 14 5 0 39 14 77 31 37 17 84 38 103 46 117 52 473
224 480 232 3 3 37 22 75 41 39 19 119 63 179 97 60 35 110 63 112 63 12 0
466 288 555 351 35 25 96 68 134 94 39 27 72 52 73 57 2 4 8 8 13 8 9 0 64 39
105 75 7 6 24 19 40 30 73 52 279 218 413 333 254 218 646 601 831 812 51 58
110 124 131 147 22 24 39 45 39 48 0 3 10 16 23 28 12 12 38 42 57 67 36 46
67 84 85 104 6 6 40 49 75 96 35 47 68 87 72 88 4 2 8 10 8 17 0 7 4 15 9 17
9 3 97 120 171 228 25 36 47 67 50 70 11 10 145 216 164 250 10 19 21 37 25
40 3 3 11 14 18 25 7 11 39 63 72 115 63 102 115 190 134 230 6 14 15 27 19
30 4 3 11 17 17 30 6 14 29 57 51 95 34 61 257 504 280 560 5 11 23 52 40 90
17 39 35 79 40 90 5 11 23 51 39 88 17 38 31 75 31 82 0 8 4 16 9 20 5 3 13
20 17 37 3 18 10 39 15 48 14 26 36 82 69 175 18 50 36 99 41 110 22 52 149
453 149 472 0 7 4 21 9 31 5 9 17 46 26 82 10 36 24 84 31 108 8 23 14 54 14
67 0 13 4 26 9 29 5 4 12 30 16 59 4 28 11 57 15 62 4 6 10 24 13 40 3 17 13
66 22 110 9 44 22 110 28 147 7 36 15 70 20 74 4 4 7 22 7 39 0 18 4 45 10 61
5 16 14 63 20 104 6 41 17 118 25 170 8 52 20 131 25 175 6 44 15 107 20 140
6 33 10 82 10 108 0 27 5 67 10 90 45 189 45 1383 0 1727 -5 41 -15 120 -21
175 -13 117 -23 193 -43 330 -13 88 -24 150 -56 325 -4 25 -13 74 -20 110 -6
36 -15 74 -20 85 -4 11 -13 49 -20 85 -12 64 -14 77 -44 195 -8 33 -20 83 -26
110 -6 28 -15 59 -20 70 -5 11 -11 31 -14 45 -10 50 -28 115 -35 130 -5 9 -12
31 -15 50 -4 19 -11 44 -15 55 -5 11 -16 47 -26 80 -9 33 -20 67 -25 75 -4 9
-11 31 -15 50 -4 19 -11 41 -16 50 -4 8 -22 58 -39 110 -17 52 -35 103 -41
112 -5 10 -9 23 -9 29 0 6 -7 26 -15 45 -8 19 -22 49 -30 68 -8 19 -15 40 -15
48 0 8 -3 17 -6 21 -9 9 -74 170 -74 185 0 6 -4 12 -9 12 -5 0 -12 13 -16 30
-3 16 -15 46 -25 67 -38 81 -60 132 -60 142 0 6 -4 11 -10 11 -5 0 -10 6 -10
14 0 44 -327 667 -467 888 -12 21 -23 42 -23 48 0 5 -4 10 -9 10 -5 0 -12 8
-15 18 -7 20 -13 30 -81 132 -28 41 -52 80 -55 85 -8 16 -123 186 -171 252
-24 34 -51 71 -59 83 -14 21 -61 84 -78 105 -4 6 -28 37 -52 70 -55 74 -144
188 -185 236 -16 20 -39 47 -49 60 -11 13 -45 53 -76 89 -31 36 -66 76 -78 90
-104 124 -216 243 -402 430 -172 172 -351 341 -445 421 -22 19 -42 36 -45 39
-3 3 -32 28 -65 55 -32 28 -66 57 -76 65 -9 8 -25 22 -35 30 -60 47 -120 96
-124 100 -3 3 -50 39 -105 80 -55 40 -101 77 -103 82 -2 4 -10 8 -18 8 -8 0
-14 4 -14 9 0 5 -17 20 -37 32 -21 13 -40 26 -43 29 -21 28 -542 369 -655 431
-22 11 -42 24 -45 28 -3 4 -25 17 -50 30 -25 12 -63 33 -85 46 -39 24 -74 43
-185 101 -30 16 -57 31 -60 34 -16 16 -472 235 -598 286 -48 20 -110 47 -139
60 -28 13 -58 24 -67 24 -8 0 -17 4 -20 9 -3 5 -18 12 -33 16 -15 3 -45 15
-67 26 -22 10 -44 19 -49 19 -5 0 -23 6 -40 14 -18 7 -54 21 -82 31 -27 9 -59
21 -70 25 -11 5 -49 19 -85 30 -36 12 -74 25 -85 30 -11 4 -67 23 -125 40 -58
18 -125 39 -150 47 -72 23 -187 54 -340 92 -47 12 -101 26 -120 32 -19 5 -55
14 -80 19 -25 5 -79 16 -120 25 -41 10 -93 21 -115 25 -22 4 -62 12 -90 18
-72 15 -305 22 -411 12z"/>
</g>
</svg>
